# xmcd CD database file
#
# Track frame offsets:
#	150
#	17871
#	38389
#	60863
#	80819
#	100380
#	121384
#	146601
#	167230
#	189089
#	211834
#	229703
#	249632
#	272631
#	292129
#	317928
#	339267
#
# Disc length: 4793 seconds
#
# Revision: 1
# Processed by: cddbd v1.4PL0 Copyright (c) Steve Scherf et al.
# Submitted via: CDex 1.40Beta8
#
DISCID=ef12b711
DTITLE=Chia - Cute Kat ^__^
DYEAR=2001
DGENRE=Rock
TTITLE0=第一首
TTITLE1=第二首
TTITLE2=第三首
TTITLE3=第四首
TTITLE4=第五首
TTITLE5=第六首
TTITLE6=第七首
TTITLE7=第八首
TTITLE8=第九首
TTITLE9=第十首
TTITLE10=第十一首
TTITLE11=第十二首
TTITLE12=第十三首
TTITLE13=第十四首
TTITLE14=第十五首
TTITLE15=第十六首
TTITLE16=第十七首
EXTD=YEAR: 2001 ID3G: 17
EXTT0=
EXTT1=
EXTT2=
EXTT3=
EXTT4=
EXTT5=
EXTT6=
EXTT7=
EXTT8=
EXTT9=
EXTT10=
EXTT11=
EXTT12=
EXTT13=
EXTT14=
EXTT15=
EXTT16=
PLAYORDER=
